# xmcd CD database file
#
# Track frame offsets:
#	150
#	23019
#	42673
#	64800
#	88923
#	110160
#	135527
#	159775
#	181896
#	204374
#	232756
#
# Disc length: 3303 seconds
#
# Revision: 0
# Processed by: cddbd v1.5.2PL0 Copyright (c) Steve Scherf et al.
# Submitted via: CDex 1.51
#
DISCID=8b0ce50b
DTITLE=Luxia - Luxia
DYEAR=2004
DGENRE=Jazz
TTITLE0=Fell In Love With The World
TTITLE1=Cool Mountain
TTITLE2=Bring Back The Love
TTITLE3=Feels So Good
TTITLE4=Only Believe In Love
TTITLE5=Frankie
TTITLE6=ID
TTITLE7=Special Place
TTITLE8=Feels So Good (reprise).m4a
TTITLE9=Porgy
TTITLE10=Torriano
EXTD=YEAR: 2004
EXTT0=
EXTT1=
EXTT2=
EXTT3=
EXTT4=
EXTT5=
EXTT6=
EXTT7=
EXTT8=
EXTT9=
EXTT10=
PLAYORDER=
